# xmcd
#
# Track frame offsets:
#	150
#	13967
#	38342
#	55978
#	76581
#	103484
#	120665
#	141830
#
# Disc length: 2122 seconds
#
# Revision: 1
# Processed by: cddbd v1.4PL0 Copyright (c) Steve Scherf et al.
# Submitted via: CDmax 1.8
#
DISCID=63084808
DTITLE=Teddy Pendegrass - It's time for love
DYEAR=1981
DGENRE=R and B Soul
TTITLE0=I can't life without your love
TTITLE1=You're my latest, greatest inspiration
TTITLE2=9 time out 10
TTITLE3=Keep on lovin' me
TTITLE4=It's time for love
TTITLE5=She's over me
TTITLE6=I can't leave your love alone
TTITLE7=You must live on
EXTD=Transferred from to the cd from the album in Barry Alexander collection
EXTT0=
EXTT1=
EXTT2=
EXTT3=
EXTT4=
EXTT5=
EXTT6=
EXTT7=
PLAYORDER=
